<svg viewBox="0 0 12.146 10.5039" xmlns="http://www.w3.org/2000/svg" xmlns:xlink="http://www.w3.org/1999/xlink" width="12.145996" height="10.503906" fill="none" customFrame="#000000">
	<path id="Vector" d="M6.07306 0.000488281C7.72311 0.000488281 7.92899 0.00574032 8.57637 0.0320007C9.22315 0.058261 9.66345 0.145971 10.0509 0.276222C10.4517 0.409625 10.7894 0.590296 11.1271 0.881786C11.4359 1.14433 11.6748 1.46192 11.8273 1.81245C11.9773 2.14701 12.0793 2.52831 12.1097 3.08766C12.1382 3.64753 12.1461 3.82557 12.1461 5.25256C12.1461 6.67955 12.14 6.85759 12.1097 7.41746C12.0793 7.97681 11.9773 8.35758 11.8273 8.69267C11.6753 9.04339 11.4363 9.36105 11.1271 9.62333C10.8234 9.89031 10.4562 10.0969 10.0509 10.2289C9.66406 10.3586 9.22315 10.4469 8.57637 10.4731C7.92899 10.4978 7.72311 10.5046 6.07306 10.5046C4.42301 10.5046 4.21713 10.4994 3.56974 10.4731C2.92296 10.4469 2.48267 10.3586 2.09521 10.2289C1.68972 10.0973 1.32243 9.89064 1.01906 9.62333C0.710187 9.36083 0.471228 9.04323 0.318836 8.69267C0.168224 8.35811 0.0668036 7.97681 0.0364383 7.41746C0.00789494 6.85759 0 6.67955 0 5.25256C0 3.82557 0.00607303 3.64753 0.0364383 3.08766C0.0668036 2.52778 0.168224 2.14754 0.318836 1.81245C0.470805 1.46171 0.709821 1.14403 1.01906 0.881786C1.32251 0.614577 1.68979 0.407907 2.09521 0.276222C2.48267 0.145971 2.92236 0.058261 3.56974 0.0320007C4.21713 0.00731594 4.42301 0.000488281 6.07306 0.000488281ZM6.07306 2.62652C5.26772 2.62652 4.49537 2.90319 3.92591 3.39567C3.35645 3.88815 3.03653 4.55609 3.03653 5.25256C3.03653 5.94903 3.35645 6.61697 3.92591 7.10945C4.49537 7.60192 5.26772 7.8786 6.07306 7.8786C6.8784 7.8786 7.65075 7.60192 8.22021 7.10945C8.78967 6.61697 9.10959 5.94903 9.10959 5.25256C9.10959 4.55609 8.78967 3.88815 8.22021 3.39567C7.65075 2.90319 6.8784 2.62652 6.07306 2.62652ZM10.0205 2.49522C10.0205 2.32111 9.94057 2.15412 9.7982 2.031C9.65584 1.90788 9.46275 1.83871 9.26141 1.83871C9.06008 1.83871 8.86699 1.90788 8.72463 2.031C8.58226 2.15412 8.50228 2.32111 8.50228 2.49522C8.50228 2.66934 8.58226 2.83632 8.72463 2.95944C8.86699 3.08256 9.06008 3.15173 9.26141 3.15173C9.46275 3.15173 9.65584 3.08256 9.7982 2.95944C9.94057 2.83632 10.0205 2.66934 10.0205 2.49522ZM6.07306 3.67694C6.55626 3.67694 7.01967 3.84294 7.36135 4.13843C7.70303 4.43391 7.89498 4.83468 7.89498 5.25256C7.89498 5.67044 7.70303 6.07121 7.36135 6.36669C7.01967 6.66218 6.55626 6.82818 6.07306 6.82818C5.58986 6.82818 5.12644 6.66218 4.78477 6.36669C4.44309 6.07121 4.25114 5.67044 4.25114 5.25256C4.25114 4.83468 4.44309 4.43391 4.78477 4.13843C5.12644 3.84294 5.58986 3.67694 6.07306 3.67694Z" fill="rgb(43,43,43)" fill-rule="nonzero" />
</svg>
